# xmcd CD database file
#
# Track frame offsets:
#	150
#	15814
#	21200
#	25411
#	29384
#	32277
#	52146
#	62970
#	68714
#	74912
#	77780
#	87634
#	92525
#	96168
#	99146
#	103272
#	105911
#	110669
#	117096
#	124043
#	127432
#	131356
#	134634
#	137544
#	140674
#	143952
#	149095
#	151867
#	155664
#	158555
#	161137
#	164272
#
# Disc length: 2430 seconds
#
# Revision: 0
# Processed by: cddbd v1.5.2PL0 Copyright (c) Steve Scherf et al.
# Submitted via: CDex 1.51
#
DISCID=cb097c20
DTITLE=Harmonica Masterclass - Level 3 - Classic Chicago Blues Harp #2
DYEAR=1900
DGENRE=Blues
TTITLE0=About the Harmonica Masterclass Lesson Series
TTITLE1=Cross Harp Blues Scale
TTITLE2=Music Example - Blues Scale Scream
TTITLE3=Music Example - Steppin' Lightly
TTITLE4=Wuarter-tone Bends
TTITLE5=The Bent Vibrato
TTITLE6=Tongue Blocking, HOt Licks and Blues Bits 6
TTITLE7=12 Bar Jam 6A and 6B
TTITLE8=OCtave Embouchure and Exercises
TTITLE9=Hot Licks and Blues Bits
TTITLE10=12 Bar Jam7A, 7B and &C
TTITLE11=The Flutter Tongue
TTITLE12=Octave Substitution
TTITLE13=5 HOle Octave Exercises
TTITLE14=Hot Licks and BLues Bits 8
TTITLE15=12 Bar Jam 8A
TTITLE16=12 Bar Jam 8B
TTITLE17=12 ar Jam 8C, OCtave Substituion and Phrasing
TTITLE18=High End Blow Bends and Blues Scale
TTITLE19=1st Position Root Notes and 12 Bar Blues Progression
TTITLE20=Using Blow Bends for Experession
TTITLE21=Hot Licks and Blues Bits 9
TTITLE22=12 Bar Jam 9A
TTITLE23=Starting in the Bent Position
TTITLE24=Hot Licks and Blues Bits 10
TTITLE25=12 Bar Jam 11A
TTITLE26=Draw Harp Blues Scale
TTITLE27=3rd Position Chords and Root NOtes
TTITLE28=12 Bar Jam 11A
TTITLE29=12 Bar Jam 11B
TTITLE30=12 Bar Jam 11C
TTITLE31=I'm Ready, By Willie Dixon
EXTD=
EXTT0=
EXTT1=
EXTT2=
EXTT3=
EXTT4=
EXTT5=
EXTT6=
EXTT7=
EXTT8=
EXTT9=
EXTT10=
EXTT11=
EXTT12=
EXTT13=
EXTT14=
EXTT15=
EXTT16=
EXTT17=
EXTT18=
EXTT19=
EXTT20=
EXTT21=
EXTT22=
EXTT23=
EXTT24=
EXTT25=
EXTT26=
EXTT27=
EXTT28=
EXTT29=
EXTT30=
EXTT31=
PLAYORDER=
